<mxfile host="Electron" modified="2023-11-14T15:52:34.875Z" agent="Mozilla/5.0 (Macintosh; Intel Mac OS X 10_15_7) AppleWebKit/537.36 (KHTML, like Gecko) draw.io/22.0.3 Chrome/114.0.5735.289 Electron/25.8.4 Safari/537.36" etag="lK5MzYaqPF_gXXPLZdec" version="22.0.3" type="device" pages="2">
  <diagram id="HLCt3dCkvnN2sqw2R_Rt" name="vertical">
    <mxGraphModel dx="1681" dy="1339" grid="1" gridSize="10" guides="1" tooltips="1" connect="1" arrows="1" fold="1" page="0" pageScale="1" pageWidth="850" pageHeight="1100" math="0" shadow="0">
      <root>
        <mxCell id="0" />
        <mxCell id="1" parent="0" />
        <mxCell id="NqA-LnXNSeAlEtRmmRbU-6" style="edgeStyle=orthogonalEdgeStyle;rounded=0;orthogonalLoop=1;jettySize=auto;html=1;exitX=1;exitY=0;exitDx=0;exitDy=0;entryX=0;entryY=0;entryDx=0;entryDy=0;curved=1;strokeWidth=3;strokeColor=#FF8000;" parent="1" source="NqA-LnXNSeAlEtRmmRbU-1" target="NqA-LnXNSeAlEtRmmRbU-2" edge="1">
          <mxGeometry relative="1" as="geometry" />
        </mxCell>
        <mxCell id="NqA-LnXNSeAlEtRmmRbU-13" value="" style="edgeLabel;html=1;align=center;verticalAlign=middle;resizable=0;points=[];fillColor=#FF0000;" parent="NqA-LnXNSeAlEtRmmRbU-6" vertex="1" connectable="0">
          <mxGeometry x="-0.1332" relative="1" as="geometry">
            <mxPoint x="1" y="-12" as="offset" />
          </mxGeometry>
        </mxCell>
        <mxCell id="NqA-LnXNSeAlEtRmmRbU-1" value="Requestor" style="ellipse;whiteSpace=wrap;html=1;" parent="1" vertex="1">
          <mxGeometry x="400" y="420" width="120" height="80" as="geometry" />
        </mxCell>
        <mxCell id="NqA-LnXNSeAlEtRmmRbU-7" style="edgeStyle=orthogonalEdgeStyle;rounded=0;orthogonalLoop=1;jettySize=auto;html=1;exitX=0;exitY=1;exitDx=0;exitDy=0;entryX=1;entryY=1;entryDx=0;entryDy=0;curved=1;strokeWidth=3;strokeColor=#FF8000;" parent="1" source="NqA-LnXNSeAlEtRmmRbU-2" target="NqA-LnXNSeAlEtRmmRbU-1" edge="1">
          <mxGeometry relative="1" as="geometry" />
        </mxCell>
        <mxCell id="NqA-LnXNSeAlEtRmmRbU-8" style="edgeStyle=orthogonalEdgeStyle;rounded=0;orthogonalLoop=1;jettySize=auto;html=1;exitX=1;exitY=0;exitDx=0;exitDy=0;entryX=0;entryY=0;entryDx=0;entryDy=0;curved=1;strokeWidth=3;strokeColor=#FF8000;" parent="1" source="NqA-LnXNSeAlEtRmmRbU-2" target="NqA-LnXNSeAlEtRmmRbU-3" edge="1">
          <mxGeometry relative="1" as="geometry" />
        </mxCell>
        <mxCell id="NqA-LnXNSeAlEtRmmRbU-12" style="rounded=0;orthogonalLoop=1;jettySize=auto;html=1;exitX=0.5;exitY=1;exitDx=0;exitDy=0;strokeWidth=3;strokeColor=#7F00FF;entryX=0.5;entryY=0;entryDx=0;entryDy=0;entryPerimeter=0;" parent="1" source="NqA-LnXNSeAlEtRmmRbU-19" target="NqA-LnXNSeAlEtRmmRbU-17" edge="1">
          <mxGeometry relative="1" as="geometry">
            <mxPoint x="700" y="670" as="targetPoint" />
          </mxGeometry>
        </mxCell>
        <mxCell id="NqA-LnXNSeAlEtRmmRbU-2" value="Resource&lt;br&gt;Owner" style="ellipse;whiteSpace=wrap;html=1;" parent="1" vertex="1">
          <mxGeometry x="640" y="420" width="120" height="80" as="geometry" />
        </mxCell>
        <mxCell id="NqA-LnXNSeAlEtRmmRbU-9" style="edgeStyle=orthogonalEdgeStyle;rounded=0;orthogonalLoop=1;jettySize=auto;html=1;exitX=0;exitY=1;exitDx=0;exitDy=0;entryX=1;entryY=1;entryDx=0;entryDy=0;curved=1;strokeWidth=3;strokeColor=#FF8000;" parent="1" source="NqA-LnXNSeAlEtRmmRbU-3" target="NqA-LnXNSeAlEtRmmRbU-2" edge="1">
          <mxGeometry relative="1" as="geometry" />
        </mxCell>
        <mxCell id="NqA-LnXNSeAlEtRmmRbU-11" style="rounded=0;orthogonalLoop=1;jettySize=auto;html=1;exitX=0.5;exitY=1;exitDx=0;exitDy=0;entryX=0.5;entryY=0;entryDx=0;entryDy=0;strokeWidth=3;strokeColor=#7F00FF;entryPerimeter=0;" parent="1" source="NqA-LnXNSeAlEtRmmRbU-18" target="NqA-LnXNSeAlEtRmmRbU-17" edge="1">
          <mxGeometry relative="1" as="geometry" />
        </mxCell>
        <mxCell id="NqA-LnXNSeAlEtRmmRbU-3" value="Resource" style="ellipse;whiteSpace=wrap;html=1;" parent="1" vertex="1">
          <mxGeometry x="930" y="420" width="120" height="80" as="geometry" />
        </mxCell>
        <mxCell id="NqA-LnXNSeAlEtRmmRbU-17" value="&lt;font color=&quot;#000000&quot; style=&quot;font-size: 12px;&quot;&gt;Log&lt;/font&gt;" style="shape=cylinder3;whiteSpace=wrap;html=1;boundedLbl=1;backgroundOutline=1;size=15;fontSize=14;fontColor=#0000FF;" parent="1" vertex="1">
          <mxGeometry x="660" y="560" width="80" height="100" as="geometry" />
        </mxCell>
        <mxCell id="NqA-LnXNSeAlEtRmmRbU-18" value="" style="ellipse;whiteSpace=wrap;html=1;fontSize=12;fontColor=#000000;dashed=1;strokeColor=#7F00FF;fillColor=none;strokeWidth=2;" parent="1" vertex="1">
          <mxGeometry x="780" y="420" width="10" height="80" as="geometry" />
        </mxCell>
        <mxCell id="NqA-LnXNSeAlEtRmmRbU-19" value="" style="ellipse;whiteSpace=wrap;html=1;fontSize=12;fontColor=#000000;dashed=1;strokeColor=#7F00FF;fillColor=none;strokeWidth=2;" parent="1" vertex="1">
          <mxGeometry x="610" y="420" width="10" height="80" as="geometry" />
        </mxCell>
        <mxCell id="NqA-LnXNSeAlEtRmmRbU-20" value="status" style="rounded=0;whiteSpace=wrap;html=1;strokeColor=#00CC00;fontSize=12;fontColor=#000000;fillColor=none;strokeWidth=2;" parent="1" vertex="1">
          <mxGeometry x="760" y="584.5" width="60" height="40" as="geometry" />
        </mxCell>
        <mxCell id="NqA-LnXNSeAlEtRmmRbU-26" style="edgeStyle=none;rounded=0;orthogonalLoop=1;jettySize=auto;html=1;exitX=0.5;exitY=0;exitDx=0;exitDy=0;dashed=1;strokeColor=#FF00FF;strokeWidth=2;fontSize=12;fontColor=#000000;startArrow=classic;startFill=1;endArrow=none;endFill=0;" parent="1" source="NqA-LnXNSeAlEtRmmRbU-21" edge="1">
          <mxGeometry relative="1" as="geometry">
            <mxPoint x="870" y="510" as="targetPoint" />
          </mxGeometry>
        </mxCell>
        <mxCell id="NqA-LnXNSeAlEtRmmRbU-21" value="data&lt;br&gt;(optional)" style="rounded=0;whiteSpace=wrap;html=1;strokeColor=#00CC00;fontSize=12;fontColor=#000000;fillColor=none;strokeWidth=2;" parent="1" vertex="1">
          <mxGeometry x="820" y="584.5" width="70" height="40" as="geometry" />
        </mxCell>
        <mxCell id="NqA-LnXNSeAlEtRmmRbU-25" style="edgeStyle=none;rounded=0;orthogonalLoop=1;jettySize=auto;html=1;strokeColor=#FF00FF;strokeWidth=2;fontSize=12;fontColor=#000000;dashed=1;exitX=0.5;exitY=1;exitDx=0;exitDy=0;" parent="1" source="NqA-LnXNSeAlEtRmmRbU-22" edge="1">
          <mxGeometry relative="1" as="geometry">
            <mxPoint x="820" y="410" as="targetPoint" />
          </mxGeometry>
        </mxCell>
        <mxCell id="NqA-LnXNSeAlEtRmmRbU-22" value="command" style="rounded=0;whiteSpace=wrap;html=1;strokeColor=#00CC00;fontSize=12;fontColor=#000000;fillColor=none;strokeWidth=2;" parent="1" vertex="1">
          <mxGeometry x="740" y="290" width="70" height="40" as="geometry" />
        </mxCell>
        <mxCell id="NqA-LnXNSeAlEtRmmRbU-24" style="edgeStyle=none;rounded=0;orthogonalLoop=1;jettySize=auto;html=1;exitX=0.5;exitY=1;exitDx=0;exitDy=0;strokeColor=#FF00FF;strokeWidth=2;fontSize=12;fontColor=#000000;dashed=1;" parent="1" source="NqA-LnXNSeAlEtRmmRbU-23" edge="1">
          <mxGeometry relative="1" as="geometry">
            <mxPoint x="860" y="410" as="targetPoint" />
          </mxGeometry>
        </mxCell>
        <mxCell id="NqA-LnXNSeAlEtRmmRbU-23" value="data&lt;br&gt;(optional)" style="rounded=0;whiteSpace=wrap;html=1;strokeColor=#00CC00;fontSize=12;fontColor=#000000;fillColor=none;strokeWidth=2;" parent="1" vertex="1">
          <mxGeometry x="810" y="290" width="70" height="40" as="geometry" />
        </mxCell>
        <mxCell id="NqA-LnXNSeAlEtRmmRbU-36" style="edgeStyle=none;rounded=0;orthogonalLoop=1;jettySize=auto;html=1;dashed=1;strokeColor=#FF00FF;strokeWidth=2;fontSize=12;fontColor=#000000;startArrow=none;startFill=0;endArrow=classic;endFill=1;entryX=0.5;entryY=0;entryDx=0;entryDy=0;" parent="1" target="NqA-LnXNSeAlEtRmmRbU-27" edge="1">
          <mxGeometry relative="1" as="geometry">
            <mxPoint x="970" y="810" as="targetPoint" />
            <mxPoint x="830" y="640" as="sourcePoint" />
          </mxGeometry>
        </mxCell>
        <mxCell id="NqA-LnXNSeAlEtRmmRbU-27" value="payload" style="rounded=0;whiteSpace=wrap;html=1;strokeColor=#00CC00;fontSize=12;fontColor=#000000;fillColor=none;strokeWidth=2;" parent="1" vertex="1">
          <mxGeometry x="650" y="740" width="60" height="40" as="geometry" />
        </mxCell>
        <mxCell id="NqA-LnXNSeAlEtRmmRbU-28" value="check" style="rounded=0;whiteSpace=wrap;html=1;strokeColor=#00CC00;fontSize=12;fontColor=#000000;fillColor=none;strokeWidth=2;" parent="1" vertex="1">
          <mxGeometry x="710" y="740" width="70" height="40" as="geometry" />
        </mxCell>
        <mxCell id="NqA-LnXNSeAlEtRmmRbU-29" value="source" style="rounded=0;whiteSpace=wrap;html=1;strokeColor=#00CC00;fontSize=12;fontColor=#000000;fillColor=none;strokeWidth=2;" parent="1" vertex="1">
          <mxGeometry x="520" y="740" width="60" height="40" as="geometry" />
        </mxCell>
        <mxCell id="NqA-LnXNSeAlEtRmmRbU-30" value="destination" style="rounded=0;whiteSpace=wrap;html=1;strokeColor=#00CC00;fontSize=12;fontColor=#000000;fillColor=none;strokeWidth=2;" parent="1" vertex="1">
          <mxGeometry x="580" y="740" width="70" height="40" as="geometry" />
        </mxCell>
        <mxCell id="NqA-LnXNSeAlEtRmmRbU-35" style="edgeStyle=none;rounded=0;orthogonalLoop=1;jettySize=auto;html=1;exitX=0.5;exitY=1;exitDx=0;exitDy=0;dashed=1;strokeColor=#FF00FF;strokeWidth=2;fontSize=12;fontColor=#000000;startArrow=none;startFill=0;endArrow=classic;endFill=1;" parent="1" source="NqA-LnXNSeAlEtRmmRbU-31" edge="1">
          <mxGeometry relative="1" as="geometry">
            <mxPoint x="810" y="280" as="targetPoint" />
          </mxGeometry>
        </mxCell>
        <mxCell id="NqA-LnXNSeAlEtRmmRbU-31" value="payload" style="rounded=0;whiteSpace=wrap;html=1;strokeColor=#00CC00;fontSize=12;fontColor=#000000;fillColor=none;strokeWidth=2;" parent="1" vertex="1">
          <mxGeometry x="660" y="180" width="60" height="40" as="geometry" />
        </mxCell>
        <mxCell id="NqA-LnXNSeAlEtRmmRbU-32" value="check" style="rounded=0;whiteSpace=wrap;html=1;strokeColor=#00CC00;fontSize=12;fontColor=#000000;fillColor=none;strokeWidth=2;" parent="1" vertex="1">
          <mxGeometry x="720" y="180" width="70" height="40" as="geometry" />
        </mxCell>
        <mxCell id="NqA-LnXNSeAlEtRmmRbU-33" value="source" style="rounded=0;whiteSpace=wrap;html=1;strokeColor=#00CC00;fontSize=12;fontColor=#000000;fillColor=none;strokeWidth=2;" parent="1" vertex="1">
          <mxGeometry x="530" y="180" width="60" height="40" as="geometry" />
        </mxCell>
        <mxCell id="NqA-LnXNSeAlEtRmmRbU-34" value="destination" style="rounded=0;whiteSpace=wrap;html=1;strokeColor=#00CC00;fontSize=12;fontColor=#000000;fillColor=none;strokeWidth=2;" parent="1" vertex="1">
          <mxGeometry x="590" y="180" width="70" height="40" as="geometry" />
        </mxCell>
        <mxCell id="NqA-LnXNSeAlEtRmmRbU-37" value="" style="endArrow=none;html=1;rounded=0;strokeColor=#00CC00;strokeWidth=2;fontSize=12;fontColor=#000000;" parent="1" edge="1">
          <mxGeometry width="50" height="50" relative="1" as="geometry">
            <mxPoint x="760" y="634.5" as="sourcePoint" />
            <mxPoint x="890" y="634.5" as="targetPoint" />
          </mxGeometry>
        </mxCell>
        <mxCell id="NqA-LnXNSeAlEtRmmRbU-38" value="" style="endArrow=none;html=1;rounded=0;strokeColor=#00CC00;strokeWidth=2;fontSize=12;fontColor=#000000;" parent="1" edge="1">
          <mxGeometry width="50" height="50" relative="1" as="geometry">
            <mxPoint x="740" y="280" as="sourcePoint" />
            <mxPoint x="880" y="280" as="targetPoint" />
          </mxGeometry>
        </mxCell>
        <mxCell id="NqA-LnXNSeAlEtRmmRbU-39" value="" style="endArrow=none;html=1;rounded=0;strokeColor=#00CC00;strokeWidth=2;fontSize=12;fontColor=#000000;" parent="1" edge="1">
          <mxGeometry width="50" height="50" relative="1" as="geometry">
            <mxPoint x="520" y="730" as="sourcePoint" />
            <mxPoint x="780" y="730" as="targetPoint" />
          </mxGeometry>
        </mxCell>
        <mxCell id="NqA-LnXNSeAlEtRmmRbU-40" value="" style="endArrow=none;html=1;rounded=0;strokeColor=#00CC00;strokeWidth=2;fontSize=12;fontColor=#000000;" parent="1" edge="1">
          <mxGeometry width="50" height="50" relative="1" as="geometry">
            <mxPoint x="530" y="230" as="sourcePoint" />
            <mxPoint x="790" y="230" as="targetPoint" />
          </mxGeometry>
        </mxCell>
        <mxCell id="NqA-LnXNSeAlEtRmmRbU-41" style="edgeStyle=none;rounded=0;orthogonalLoop=1;jettySize=auto;html=1;dashed=1;strokeColor=#FF00FF;strokeWidth=2;fontSize=12;fontColor=#000000;startArrow=none;startFill=0;endArrow=classic;endFill=1;" parent="1" edge="1">
          <mxGeometry relative="1" as="geometry">
            <mxPoint x="660" y="230" as="targetPoint" />
            <mxPoint x="570" y="410" as="sourcePoint" />
          </mxGeometry>
        </mxCell>
        <mxCell id="NqA-LnXNSeAlEtRmmRbU-42" style="edgeStyle=none;rounded=0;orthogonalLoop=1;jettySize=auto;html=1;dashed=1;strokeColor=#FF00FF;strokeWidth=2;fontSize=12;fontColor=#000000;startArrow=none;startFill=0;endArrow=classic;endFill=1;" parent="1" edge="1">
          <mxGeometry relative="1" as="geometry">
            <mxPoint x="570" y="510" as="targetPoint" />
            <mxPoint x="650" y="730" as="sourcePoint" />
          </mxGeometry>
        </mxCell>
        <mxCell id="NqA-LnXNSeAlEtRmmRbU-51" style="edgeStyle=none;rounded=0;orthogonalLoop=1;jettySize=auto;html=1;entryX=0.5;entryY=0;entryDx=0;entryDy=0;strokeColor=#FF0000;strokeWidth=2;fontSize=12;fontColor=#FF0000;startArrow=none;startFill=0;endArrow=classicThin;endFill=1;dashed=1;dashPattern=1 1;" parent="1" source="NqA-LnXNSeAlEtRmmRbU-43" target="NqA-LnXNSeAlEtRmmRbU-33" edge="1">
          <mxGeometry relative="1" as="geometry" />
        </mxCell>
        <mxCell id="NqA-LnXNSeAlEtRmmRbU-43" value="&lt;font color=&quot;#ff0000&quot;&gt;&lt;b&gt;authenticity&lt;/b&gt;&lt;/font&gt;" style="text;html=1;strokeColor=none;fillColor=none;align=center;verticalAlign=middle;whiteSpace=wrap;rounded=0;strokeWidth=2;fontSize=12;fontColor=#000000;" parent="1" vertex="1">
          <mxGeometry x="480" y="110" width="120" height="30" as="geometry" />
        </mxCell>
        <mxCell id="NqA-LnXNSeAlEtRmmRbU-52" style="edgeStyle=none;rounded=0;orthogonalLoop=1;jettySize=auto;html=1;entryX=0;entryY=0.5;entryDx=0;entryDy=0;dashed=1;dashPattern=1 1;strokeColor=#FF0000;strokeWidth=2;fontSize=12;fontColor=#FF0000;startArrow=none;startFill=0;endArrow=classicThin;endFill=1;" parent="1" source="NqA-LnXNSeAlEtRmmRbU-44" target="NqA-LnXNSeAlEtRmmRbU-22" edge="1">
          <mxGeometry relative="1" as="geometry" />
        </mxCell>
        <mxCell id="NqA-LnXNSeAlEtRmmRbU-44" value="&lt;font color=&quot;#ff0000&quot;&gt;&lt;b&gt;authorization&lt;/b&gt;&lt;/font&gt;" style="text;html=1;strokeColor=none;fillColor=none;align=center;verticalAlign=middle;whiteSpace=wrap;rounded=0;strokeWidth=2;fontSize=12;fontColor=#000000;" parent="1" vertex="1">
          <mxGeometry x="630" y="350" width="120" height="30" as="geometry" />
        </mxCell>
        <mxCell id="NqA-LnXNSeAlEtRmmRbU-54" style="edgeStyle=none;rounded=0;orthogonalLoop=1;jettySize=auto;html=1;entryX=0.5;entryY=0;entryDx=0;entryDy=0;dashed=1;dashPattern=1 1;strokeColor=#FF0000;strokeWidth=2;fontSize=12;fontColor=#FF0000;startArrow=none;startFill=0;endArrow=classicThin;endFill=1;" parent="1" source="NqA-LnXNSeAlEtRmmRbU-45" target="NqA-LnXNSeAlEtRmmRbU-32" edge="1">
          <mxGeometry relative="1" as="geometry" />
        </mxCell>
        <mxCell id="NqA-LnXNSeAlEtRmmRbU-45" value="&lt;font color=&quot;#ff0000&quot;&gt;&lt;b&gt;integrity&lt;/b&gt;&lt;/font&gt;" style="text;html=1;strokeColor=none;fillColor=none;align=center;verticalAlign=middle;whiteSpace=wrap;rounded=0;strokeWidth=2;fontSize=12;fontColor=#000000;" parent="1" vertex="1">
          <mxGeometry x="710" y="110" width="120" height="30" as="geometry" />
        </mxCell>
        <mxCell id="NqA-LnXNSeAlEtRmmRbU-55" style="edgeStyle=none;rounded=0;orthogonalLoop=1;jettySize=auto;html=1;dashed=1;dashPattern=1 1;strokeColor=#FF0000;strokeWidth=2;fontSize=12;fontColor=#FF0000;startArrow=none;startFill=0;endArrow=classicThin;endFill=1;exitX=0.5;exitY=1;exitDx=0;exitDy=0;" parent="1" source="NqA-LnXNSeAlEtRmmRbU-46" edge="1">
          <mxGeometry relative="1" as="geometry">
            <mxPoint x="650" y="730" as="targetPoint" />
          </mxGeometry>
        </mxCell>
        <mxCell id="NqA-LnXNSeAlEtRmmRbU-46" value="&lt;font color=&quot;#ff0000&quot;&gt;&lt;b&gt;non-repudiation&lt;/b&gt;&lt;/font&gt;" style="text;html=1;strokeColor=none;fillColor=none;align=center;verticalAlign=middle;whiteSpace=wrap;rounded=0;strokeWidth=2;fontSize=12;fontColor=#000000;" parent="1" vertex="1">
          <mxGeometry x="470" y="660" width="120" height="30" as="geometry" />
        </mxCell>
        <mxCell id="NqA-LnXNSeAlEtRmmRbU-58" style="edgeStyle=none;rounded=0;orthogonalLoop=1;jettySize=auto;html=1;dashed=1;dashPattern=1 1;strokeColor=#FF0000;strokeWidth=2;fontSize=12;fontColor=#FF0000;startArrow=none;startFill=0;endArrow=classicThin;endFill=1;entryX=1;entryY=0.5;entryDx=0;entryDy=0;" parent="1" source="NqA-LnXNSeAlEtRmmRbU-47" target="NqA-LnXNSeAlEtRmmRbU-21" edge="1">
          <mxGeometry relative="1" as="geometry">
            <mxPoint x="910" y="510" as="targetPoint" />
          </mxGeometry>
        </mxCell>
        <mxCell id="NqA-LnXNSeAlEtRmmRbU-47" value="&lt;font color=&quot;#ff0000&quot;&gt;&lt;b&gt;confidentiality&lt;/b&gt;&lt;/font&gt;" style="text;html=1;strokeColor=none;fillColor=none;align=center;verticalAlign=middle;whiteSpace=wrap;rounded=0;strokeWidth=2;fontSize=12;fontColor=#000000;" parent="1" vertex="1">
          <mxGeometry x="890" y="660" width="120" height="30" as="geometry" />
        </mxCell>
        <mxCell id="NqA-LnXNSeAlEtRmmRbU-56" style="edgeStyle=none;rounded=0;orthogonalLoop=1;jettySize=auto;html=1;entryX=0.5;entryY=0;entryDx=0;entryDy=0;dashed=1;dashPattern=1 1;strokeColor=#FF0000;strokeWidth=2;fontSize=12;fontColor=#FF0000;startArrow=none;startFill=0;endArrow=classicThin;endFill=1;" parent="1" source="NqA-LnXNSeAlEtRmmRbU-49" target="NqA-LnXNSeAlEtRmmRbU-65" edge="1">
          <mxGeometry relative="1" as="geometry" />
        </mxCell>
        <mxCell id="NqA-LnXNSeAlEtRmmRbU-49" value="&lt;font color=&quot;#ff0000&quot;&gt;&lt;b&gt;availability&lt;/b&gt;&lt;/font&gt;" style="text;html=1;strokeColor=none;fillColor=none;align=center;verticalAlign=middle;whiteSpace=wrap;rounded=0;strokeWidth=2;fontSize=12;fontColor=#000000;" parent="1" vertex="1">
          <mxGeometry x="900" y="340" width="120" height="30" as="geometry" />
        </mxCell>
        <mxCell id="NqA-LnXNSeAlEtRmmRbU-57" style="edgeStyle=none;rounded=0;orthogonalLoop=1;jettySize=auto;html=1;entryX=0;entryY=0;entryDx=0;entryDy=32.5;entryPerimeter=0;dashed=1;dashPattern=1 1;strokeColor=#FF0000;strokeWidth=2;fontSize=12;fontColor=#FF0000;startArrow=none;startFill=0;endArrow=classicThin;endFill=1;" parent="1" source="NqA-LnXNSeAlEtRmmRbU-50" target="NqA-LnXNSeAlEtRmmRbU-17" edge="1">
          <mxGeometry relative="1" as="geometry" />
        </mxCell>
        <mxCell id="NqA-LnXNSeAlEtRmmRbU-50" value="&lt;font color=&quot;#ff0000&quot;&gt;&lt;b&gt;accountability&lt;/b&gt;&lt;/font&gt;" style="text;html=1;strokeColor=none;fillColor=none;align=center;verticalAlign=middle;whiteSpace=wrap;rounded=0;strokeWidth=2;fontSize=12;fontColor=#000000;" parent="1" vertex="1">
          <mxGeometry x="440" y="530" width="120" height="30" as="geometry" />
        </mxCell>
        <mxCell id="NqA-LnXNSeAlEtRmmRbU-59" style="edgeStyle=none;rounded=0;orthogonalLoop=1;jettySize=auto;html=1;exitX=0.5;exitY=0;exitDx=0;exitDy=0;dashed=1;strokeColor=#FF00FF;strokeWidth=2;fontSize=12;fontColor=#000000;startArrow=classic;startFill=1;endArrow=none;endFill=0;" parent="1" source="NqA-LnXNSeAlEtRmmRbU-20" edge="1">
          <mxGeometry relative="1" as="geometry">
            <mxPoint x="820" y="510" as="targetPoint" />
            <mxPoint x="885" y="600" as="sourcePoint" />
          </mxGeometry>
        </mxCell>
        <mxCell id="NqA-LnXNSeAlEtRmmRbU-61" style="edgeStyle=none;rounded=0;orthogonalLoop=1;jettySize=auto;html=1;strokeColor=#FF00FF;strokeWidth=2;fontSize=12;fontColor=#000000;dashed=1;exitX=0.5;exitY=1;exitDx=0;exitDy=0;" parent="1" source="NqA-LnXNSeAlEtRmmRbU-22" edge="1">
          <mxGeometry relative="1" as="geometry">
            <mxPoint x="820" y="480" as="targetPoint" />
            <mxPoint x="818" y="340" as="sourcePoint" />
          </mxGeometry>
        </mxCell>
        <mxCell id="NqA-LnXNSeAlEtRmmRbU-62" style="edgeStyle=none;rounded=0;orthogonalLoop=1;jettySize=auto;html=1;dashed=1;dashPattern=1 1;strokeColor=#FF0000;strokeWidth=2;fontSize=12;fontColor=#FF0000;startArrow=none;startFill=0;endArrow=classicThin;endFill=1;entryX=0;entryY=0;entryDx=0;entryDy=67.5;entryPerimeter=0;exitX=0.5;exitY=0;exitDx=0;exitDy=0;" parent="1" source="NqA-LnXNSeAlEtRmmRbU-46" target="NqA-LnXNSeAlEtRmmRbU-17" edge="1">
          <mxGeometry relative="1" as="geometry">
            <mxPoint x="560" y="520" as="targetPoint" />
            <mxPoint x="340" y="570" as="sourcePoint" />
          </mxGeometry>
        </mxCell>
        <mxCell id="NqA-LnXNSeAlEtRmmRbU-64" style="edgeStyle=none;rounded=0;orthogonalLoop=1;jettySize=auto;html=1;exitX=0.5;exitY=0;exitDx=0;exitDy=0;dashed=1;strokeColor=#FF00FF;strokeWidth=2;fontSize=12;fontColor=#000000;startArrow=classic;startFill=1;endArrow=none;endFill=0;" parent="1" source="NqA-LnXNSeAlEtRmmRbU-20" edge="1">
          <mxGeometry relative="1" as="geometry">
            <mxPoint x="830" y="440" as="targetPoint" />
            <mxPoint x="820" y="600" as="sourcePoint" />
          </mxGeometry>
        </mxCell>
        <mxCell id="NqA-LnXNSeAlEtRmmRbU-65" value="" style="ellipse;whiteSpace=wrap;html=1;fontSize=12;fontColor=#000000;dashed=1;strokeColor=#FF0000;fillColor=none;strokeWidth=2;" parent="1" vertex="1">
          <mxGeometry x="910" y="420" width="10" height="80" as="geometry" />
        </mxCell>
        <mxCell id="diFrG8HBthpDmMuYCJtp-2" value="&lt;font color=&quot;#0000ff&quot; style=&quot;font-size: 14px;&quot;&gt;request&lt;/font&gt;" style="text;html=1;strokeColor=none;fillColor=none;align=center;verticalAlign=middle;whiteSpace=wrap;rounded=0;" parent="1" vertex="1">
          <mxGeometry x="540" y="405" width="60" height="30" as="geometry" />
        </mxCell>
        <mxCell id="diFrG8HBthpDmMuYCJtp-3" value="&lt;font color=&quot;#0000ff&quot; style=&quot;font-size: 14px;&quot;&gt;response&lt;/font&gt;" style="text;html=1;strokeColor=none;fillColor=none;align=center;verticalAlign=middle;whiteSpace=wrap;rounded=0;" parent="1" vertex="1">
          <mxGeometry x="538" y="486" width="60" height="30" as="geometry" />
        </mxCell>
        <mxCell id="diFrG8HBthpDmMuYCJtp-4" value="&lt;font color=&quot;#0000ff&quot; style=&quot;font-size: 14px;&quot;&gt;write (value in)&lt;/font&gt;" style="text;html=1;strokeColor=none;fillColor=none;align=center;verticalAlign=middle;whiteSpace=wrap;rounded=0;" parent="1" vertex="1">
          <mxGeometry x="809" y="405" width="100" height="30" as="geometry" />
        </mxCell>
        <mxCell id="diFrG8HBthpDmMuYCJtp-5" value="&lt;font color=&quot;#0000ff&quot; style=&quot;font-size: 14px;&quot;&gt;read (value out)&lt;/font&gt;" style="text;html=1;strokeColor=none;fillColor=none;align=center;verticalAlign=middle;whiteSpace=wrap;rounded=0;" parent="1" vertex="1">
          <mxGeometry x="801" y="486" width="110" height="30" as="geometry" />
        </mxCell>
        <mxCell id="YYv1BeNXBOqwMVw5VUuz-1" style="edgeStyle=none;rounded=0;orthogonalLoop=1;jettySize=auto;html=1;dashed=1;dashPattern=1 1;strokeColor=#FF0000;strokeWidth=2;fontSize=12;fontColor=#FF0000;startArrow=none;startFill=0;endArrow=classicThin;endFill=1;exitX=0.5;exitY=0;exitDx=0;exitDy=0;entryX=0.75;entryY=1;entryDx=0;entryDy=0;" parent="1" source="NqA-LnXNSeAlEtRmmRbU-47" target="NqA-LnXNSeAlEtRmmRbU-23" edge="1">
          <mxGeometry relative="1" as="geometry">
            <mxPoint x="750" y="870" as="targetPoint" />
            <mxPoint x="998" y="670" as="sourcePoint" />
          </mxGeometry>
        </mxCell>
      </root>
    </mxGraphModel>
  </diagram>
  <diagram name="horizontal" id="KQB6RAMZZ4631n_YITU0">
    <mxGraphModel dx="2881" dy="1339" grid="1" gridSize="10" guides="1" tooltips="1" connect="1" arrows="1" fold="1" page="0" pageScale="1" pageWidth="850" pageHeight="1100" math="0" shadow="0">
      <root>
        <mxCell id="9179k6H8WiGQtfXDhtcM-0" />
        <mxCell id="9179k6H8WiGQtfXDhtcM-1" value="transparency" parent="9179k6H8WiGQtfXDhtcM-0" visible="0" />
        <mxCell id="mPiIoSmLdyy-_Ejjq48s-5" value="" style="rounded=0;whiteSpace=wrap;html=1;fillColor=#f5f5f5;strokeColor=#666666;fontColor=#333333;" parent="9179k6H8WiGQtfXDhtcM-1" vertex="1">
          <mxGeometry x="-600" y="200" width="1060" height="650" as="geometry" />
        </mxCell>
        <mxCell id="mPiIoSmLdyy-_Ejjq48s-0" value="core" style="locked=1;" parent="9179k6H8WiGQtfXDhtcM-0" />
        <mxCell id="9179k6H8WiGQtfXDhtcM-2" style="edgeStyle=orthogonalEdgeStyle;rounded=0;orthogonalLoop=1;jettySize=auto;html=1;exitX=1;exitY=1;exitDx=0;exitDy=0;entryX=1;entryY=0;entryDx=0;entryDy=0;curved=1;strokeWidth=3;strokeColor=#FF8000;" parent="mPiIoSmLdyy-_Ejjq48s-0" source="9179k6H8WiGQtfXDhtcM-4" target="9179k6H8WiGQtfXDhtcM-8" edge="1">
          <mxGeometry relative="1" as="geometry" />
        </mxCell>
        <mxCell id="9179k6H8WiGQtfXDhtcM-3" value="" style="edgeLabel;html=1;align=center;verticalAlign=middle;resizable=0;points=[];fillColor=#FF0000;" parent="9179k6H8WiGQtfXDhtcM-2" vertex="1" connectable="0">
          <mxGeometry x="-0.1332" relative="1" as="geometry">
            <mxPoint x="1" y="-12" as="offset" />
          </mxGeometry>
        </mxCell>
        <mxCell id="9179k6H8WiGQtfXDhtcM-4" value="Requestor" style="ellipse;whiteSpace=wrap;html=1;" parent="mPiIoSmLdyy-_Ejjq48s-0" vertex="1">
          <mxGeometry x="-120" y="250" width="120" height="80" as="geometry" />
        </mxCell>
        <mxCell id="9179k6H8WiGQtfXDhtcM-5" style="edgeStyle=orthogonalEdgeStyle;rounded=0;orthogonalLoop=1;jettySize=auto;html=1;entryX=0;entryY=1;entryDx=0;entryDy=0;curved=1;strokeWidth=3;strokeColor=#FF8000;exitX=0;exitY=0;exitDx=0;exitDy=0;" parent="mPiIoSmLdyy-_Ejjq48s-0" source="9179k6H8WiGQtfXDhtcM-8" target="9179k6H8WiGQtfXDhtcM-4" edge="1">
          <mxGeometry relative="1" as="geometry" />
        </mxCell>
        <mxCell id="9179k6H8WiGQtfXDhtcM-6" style="edgeStyle=orthogonalEdgeStyle;rounded=0;orthogonalLoop=1;jettySize=auto;html=1;exitX=1;exitY=0;exitDx=0;exitDy=0;entryX=1;entryY=0;entryDx=0;entryDy=0;curved=1;strokeWidth=3;strokeColor=#FF8000;" parent="mPiIoSmLdyy-_Ejjq48s-0" source="9179k6H8WiGQtfXDhtcM-8" target="9179k6H8WiGQtfXDhtcM-11" edge="1">
          <mxGeometry relative="1" as="geometry" />
        </mxCell>
        <mxCell id="9179k6H8WiGQtfXDhtcM-8" value="Resource&lt;br&gt;Owner" style="ellipse;whiteSpace=wrap;html=1;" parent="mPiIoSmLdyy-_Ejjq48s-0" vertex="1">
          <mxGeometry x="-120" y="480" width="120" height="80" as="geometry" />
        </mxCell>
        <mxCell id="9179k6H8WiGQtfXDhtcM-9" style="edgeStyle=orthogonalEdgeStyle;rounded=0;orthogonalLoop=1;jettySize=auto;html=1;exitX=0;exitY=0;exitDx=0;exitDy=0;entryX=0;entryY=1;entryDx=0;entryDy=0;curved=1;strokeWidth=3;strokeColor=#FF8000;" parent="mPiIoSmLdyy-_Ejjq48s-0" source="9179k6H8WiGQtfXDhtcM-11" target="9179k6H8WiGQtfXDhtcM-8" edge="1">
          <mxGeometry relative="1" as="geometry" />
        </mxCell>
        <mxCell id="9179k6H8WiGQtfXDhtcM-11" value="Resource" style="ellipse;whiteSpace=wrap;html=1;" parent="mPiIoSmLdyy-_Ejjq48s-0" vertex="1">
          <mxGeometry x="-120" y="710" width="120" height="80" as="geometry" />
        </mxCell>
        <mxCell id="mPiIoSmLdyy-_Ejjq48s-1" value="inbound" style="locked=1;" parent="9179k6H8WiGQtfXDhtcM-0" />
        <mxCell id="9179k6H8WiGQtfXDhtcM-18" style="edgeStyle=none;rounded=0;orthogonalLoop=1;jettySize=auto;html=1;strokeColor=#FF00FF;strokeWidth=2;fontSize=12;fontColor=#000000;dashed=1;exitX=0.5;exitY=1;exitDx=0;exitDy=0;entryX=0.25;entryY=0;entryDx=0;entryDy=0;" parent="mPiIoSmLdyy-_Ejjq48s-1" source="9179k6H8WiGQtfXDhtcM-19" target="9179k6H8WiGQtfXDhtcM-59" edge="1">
          <mxGeometry relative="1" as="geometry">
            <mxPoint x="160" y="700" as="targetPoint" />
          </mxGeometry>
        </mxCell>
        <mxCell id="9179k6H8WiGQtfXDhtcM-20" style="edgeStyle=none;rounded=0;orthogonalLoop=1;jettySize=auto;html=1;exitX=0.5;exitY=1;exitDx=0;exitDy=0;strokeColor=#FF00FF;strokeWidth=2;fontSize=12;fontColor=#000000;dashed=1;entryX=0.75;entryY=0;entryDx=0;entryDy=0;" parent="mPiIoSmLdyy-_Ejjq48s-1" source="9179k6H8WiGQtfXDhtcM-21" target="9179k6H8WiGQtfXDhtcM-59" edge="1">
          <mxGeometry relative="1" as="geometry">
            <mxPoint x="200" y="700" as="targetPoint" />
          </mxGeometry>
        </mxCell>
        <mxCell id="9179k6H8WiGQtfXDhtcM-27" style="edgeStyle=none;rounded=0;orthogonalLoop=1;jettySize=auto;html=1;exitX=0.5;exitY=1;exitDx=0;exitDy=0;dashed=1;strokeColor=#FF00FF;strokeWidth=2;fontSize=12;fontColor=#000000;startArrow=none;startFill=0;endArrow=classic;endFill=1;" parent="mPiIoSmLdyy-_Ejjq48s-1" source="9179k6H8WiGQtfXDhtcM-28" edge="1">
          <mxGeometry relative="1" as="geometry">
            <mxPoint x="200" y="590" as="targetPoint" />
          </mxGeometry>
        </mxCell>
        <mxCell id="9179k6H8WiGQtfXDhtcM-28" value="payload" style="rounded=0;whiteSpace=wrap;html=1;strokeColor=#00CC00;fontSize=12;fontColor=#000000;fillColor=none;strokeWidth=2;" parent="mPiIoSmLdyy-_Ejjq48s-1" vertex="1">
          <mxGeometry x="170" y="390" width="60" height="40" as="geometry" />
        </mxCell>
        <mxCell id="9179k6H8WiGQtfXDhtcM-29" value="check" style="rounded=0;whiteSpace=wrap;html=1;strokeColor=#00CC00;fontSize=12;fontColor=#000000;fillColor=none;strokeWidth=2;" parent="mPiIoSmLdyy-_Ejjq48s-1" vertex="1">
          <mxGeometry x="230" y="390" width="70" height="40" as="geometry" />
        </mxCell>
        <mxCell id="9179k6H8WiGQtfXDhtcM-30" value="source" style="rounded=0;whiteSpace=wrap;html=1;strokeColor=#00CC00;fontSize=12;fontColor=#000000;fillColor=none;strokeWidth=2;" parent="mPiIoSmLdyy-_Ejjq48s-1" vertex="1">
          <mxGeometry x="40" y="390" width="60" height="40" as="geometry" />
        </mxCell>
        <mxCell id="9179k6H8WiGQtfXDhtcM-31" value="destination" style="rounded=0;whiteSpace=wrap;html=1;strokeColor=#00CC00;fontSize=12;fontColor=#000000;fillColor=none;strokeWidth=2;" parent="mPiIoSmLdyy-_Ejjq48s-1" vertex="1">
          <mxGeometry x="100" y="390" width="70" height="40" as="geometry" />
        </mxCell>
        <mxCell id="9179k6H8WiGQtfXDhtcM-35" value="" style="endArrow=none;html=1;rounded=0;strokeColor=#00CC00;strokeWidth=2;fontSize=12;fontColor=#000000;" parent="mPiIoSmLdyy-_Ejjq48s-1" edge="1">
          <mxGeometry width="50" height="50" relative="1" as="geometry">
            <mxPoint x="40" y="380" as="sourcePoint" />
            <mxPoint x="300" y="380" as="targetPoint" />
          </mxGeometry>
        </mxCell>
        <mxCell id="9179k6H8WiGQtfXDhtcM-36" style="edgeStyle=none;rounded=0;orthogonalLoop=1;jettySize=auto;html=1;dashed=1;strokeColor=#FF00FF;strokeWidth=2;fontSize=12;fontColor=#000000;startArrow=none;startFill=0;endArrow=classic;endFill=1;exitX=0.5;exitY=1;exitDx=0;exitDy=0;" parent="mPiIoSmLdyy-_Ejjq48s-1" source="9179k6H8WiGQtfXDhtcM-57" edge="1">
          <mxGeometry relative="1" as="geometry">
            <mxPoint x="170" y="380" as="targetPoint" />
            <mxPoint x="570" y="390" as="sourcePoint" />
          </mxGeometry>
        </mxCell>
        <mxCell id="9179k6H8WiGQtfXDhtcM-53" style="edgeStyle=none;rounded=0;orthogonalLoop=1;jettySize=auto;html=1;strokeColor=#FF00FF;strokeWidth=2;fontSize=12;fontColor=#000000;dashed=1;exitX=0.5;exitY=1;exitDx=0;exitDy=0;entryX=1;entryY=0.5;entryDx=0;entryDy=0;" parent="mPiIoSmLdyy-_Ejjq48s-1" source="9179k6H8WiGQtfXDhtcM-19" target="9179k6H8WiGQtfXDhtcM-60" edge="1">
          <mxGeometry relative="1" as="geometry">
            <mxPoint x="-170" y="610" as="targetPoint" />
            <mxPoint x="158" y="590" as="sourcePoint" />
          </mxGeometry>
        </mxCell>
        <mxCell id="9179k6H8WiGQtfXDhtcM-57" value="&lt;font color=&quot;#0000ff&quot; style=&quot;font-size: 14px;&quot;&gt;request&lt;/font&gt;" style="text;html=1;strokeColor=none;fillColor=none;align=center;verticalAlign=middle;whiteSpace=wrap;rounded=0;" parent="mPiIoSmLdyy-_Ejjq48s-1" vertex="1">
          <mxGeometry x="140" y="310" width="60" height="30" as="geometry" />
        </mxCell>
        <mxCell id="9179k6H8WiGQtfXDhtcM-59" value="&lt;font color=&quot;#0000ff&quot; style=&quot;font-size: 14px;&quot;&gt;write (value in)&lt;/font&gt;" style="text;html=1;strokeColor=none;fillColor=none;align=center;verticalAlign=middle;whiteSpace=wrap;rounded=0;" parent="mPiIoSmLdyy-_Ejjq48s-1" vertex="1">
          <mxGeometry x="150" y="730" width="100" height="30" as="geometry" />
        </mxCell>
        <mxCell id="mPiIoSmLdyy-_Ejjq48s-6" value="" style="group" parent="mPiIoSmLdyy-_Ejjq48s-1" vertex="1" connectable="0">
          <mxGeometry x="130" y="590" width="140" height="50" as="geometry" />
        </mxCell>
        <mxCell id="9179k6H8WiGQtfXDhtcM-19" value="command" style="rounded=0;whiteSpace=wrap;html=1;strokeColor=#00CC00;fontSize=12;fontColor=#000000;fillColor=none;strokeWidth=2;" parent="mPiIoSmLdyy-_Ejjq48s-6" vertex="1">
          <mxGeometry y="10" width="70" height="40" as="geometry" />
        </mxCell>
        <mxCell id="9179k6H8WiGQtfXDhtcM-21" value="data&lt;br&gt;(optional)" style="rounded=0;whiteSpace=wrap;html=1;strokeColor=#00CC00;fontSize=12;fontColor=#000000;fillColor=none;strokeWidth=2;" parent="mPiIoSmLdyy-_Ejjq48s-6" vertex="1">
          <mxGeometry x="70" y="10" width="70" height="40" as="geometry" />
        </mxCell>
        <mxCell id="9179k6H8WiGQtfXDhtcM-33" value="" style="endArrow=none;html=1;rounded=0;strokeColor=#00CC00;strokeWidth=2;fontSize=12;fontColor=#000000;" parent="mPiIoSmLdyy-_Ejjq48s-6" edge="1">
          <mxGeometry width="50" height="50" relative="1" as="geometry">
            <mxPoint as="sourcePoint" />
            <mxPoint x="140" as="targetPoint" />
          </mxGeometry>
        </mxCell>
        <mxCell id="uYNb6bhPOSgaQyku6HlC-0" value="properties - CIA" style="locked=1;" parent="9179k6H8WiGQtfXDhtcM-0" />
        <mxCell id="9179k6H8WiGQtfXDhtcM-43" value="&lt;font color=&quot;#ff0000&quot;&gt;&lt;b&gt;integrity&lt;/b&gt;&lt;/font&gt;" style="text;html=1;strokeColor=none;fillColor=none;align=center;verticalAlign=middle;whiteSpace=wrap;rounded=0;strokeWidth=2;fontSize=12;fontColor=#000000;" parent="uYNb6bhPOSgaQyku6HlC-0" vertex="1">
          <mxGeometry x="250" y="470" width="120" height="30" as="geometry" />
        </mxCell>
        <mxCell id="9179k6H8WiGQtfXDhtcM-42" style="edgeStyle=none;rounded=0;orthogonalLoop=1;jettySize=auto;html=1;entryX=0.75;entryY=1;entryDx=0;entryDy=0;dashed=1;dashPattern=1 1;strokeColor=#FF0000;strokeWidth=2;fontSize=12;fontColor=#FF0000;startArrow=none;startFill=0;endArrow=classicThin;endFill=1;" parent="uYNb6bhPOSgaQyku6HlC-0" source="9179k6H8WiGQtfXDhtcM-43" target="9179k6H8WiGQtfXDhtcM-29" edge="1">
          <mxGeometry relative="1" as="geometry" />
        </mxCell>
        <mxCell id="9179k6H8WiGQtfXDhtcM-47" value="&lt;font color=&quot;#ff0000&quot;&gt;&lt;b&gt;confidentiality&lt;/b&gt;&lt;/font&gt;" style="text;html=1;strokeColor=none;fillColor=none;align=center;verticalAlign=middle;whiteSpace=wrap;rounded=0;strokeWidth=2;fontSize=12;fontColor=#000000;" parent="uYNb6bhPOSgaQyku6HlC-0" vertex="1">
          <mxGeometry x="260" y="730" width="120" height="30" as="geometry" />
        </mxCell>
        <mxCell id="9179k6H8WiGQtfXDhtcM-46" style="edgeStyle=none;rounded=0;orthogonalLoop=1;jettySize=auto;html=1;dashed=1;dashPattern=1 1;strokeColor=#FF0000;strokeWidth=2;fontSize=12;fontColor=#FF0000;startArrow=none;startFill=0;endArrow=classicThin;endFill=1;entryX=1;entryY=0.5;entryDx=0;entryDy=0;exitX=0.5;exitY=0;exitDx=0;exitDy=0;" parent="uYNb6bhPOSgaQyku6HlC-0" source="9179k6H8WiGQtfXDhtcM-47" target="9179k6H8WiGQtfXDhtcM-17" edge="1">
          <mxGeometry relative="1" as="geometry">
            <mxPoint x="910" y="510" as="targetPoint" />
          </mxGeometry>
        </mxCell>
        <mxCell id="4HWkxu_IymZZZ52Yb9jf-0" style="edgeStyle=none;rounded=0;orthogonalLoop=1;jettySize=auto;html=1;dashed=1;dashPattern=1 1;strokeColor=#FF0000;strokeWidth=2;fontSize=12;fontColor=#FF0000;startArrow=none;startFill=0;endArrow=classicThin;endFill=1;exitX=0.5;exitY=0;exitDx=0;exitDy=0;entryX=0.75;entryY=1;entryDx=0;entryDy=0;" parent="uYNb6bhPOSgaQyku6HlC-0" source="9179k6H8WiGQtfXDhtcM-47" target="9179k6H8WiGQtfXDhtcM-21" edge="1">
          <mxGeometry relative="1" as="geometry">
            <mxPoint x="240" y="650" as="targetPoint" />
            <mxPoint x="280" y="760" as="sourcePoint" />
          </mxGeometry>
        </mxCell>
        <mxCell id="9179k6H8WiGQtfXDhtcM-48" style="edgeStyle=none;rounded=0;orthogonalLoop=1;jettySize=auto;html=1;entryX=0.5;entryY=0;entryDx=0;entryDy=0;dashed=1;dashPattern=1 1;strokeColor=#FF0000;strokeWidth=2;fontSize=12;fontColor=#FF0000;startArrow=none;startFill=0;endArrow=classicThin;endFill=1;" parent="uYNb6bhPOSgaQyku6HlC-0" source="9179k6H8WiGQtfXDhtcM-49" target="9179k6H8WiGQtfXDhtcM-56" edge="1">
          <mxGeometry relative="1" as="geometry" />
        </mxCell>
        <mxCell id="9179k6H8WiGQtfXDhtcM-49" value="&lt;font color=&quot;#ff0000&quot;&gt;&lt;b&gt;availability&lt;/b&gt;&lt;/font&gt;" style="text;html=1;strokeColor=none;fillColor=none;align=center;verticalAlign=middle;whiteSpace=wrap;rounded=0;strokeWidth=2;fontSize=12;fontColor=#000000;" parent="uYNb6bhPOSgaQyku6HlC-0" vertex="1">
          <mxGeometry x="10" y="580" width="120" height="30" as="geometry" />
        </mxCell>
        <mxCell id="9179k6H8WiGQtfXDhtcM-56" value="" style="ellipse;whiteSpace=wrap;html=1;fontSize=12;fontColor=#000000;dashed=1;strokeColor=#FF0000;fillColor=none;strokeWidth=2;rotation=90;" parent="uYNb6bhPOSgaQyku6HlC-0" vertex="1">
          <mxGeometry x="-65" y="580" width="10" height="110" as="geometry" />
        </mxCell>
        <mxCell id="mPiIoSmLdyy-_Ejjq48s-2" value="properties - extended" style="locked=1;" parent="9179k6H8WiGQtfXDhtcM-0" />
        <mxCell id="9179k6H8WiGQtfXDhtcM-38" style="edgeStyle=none;rounded=0;orthogonalLoop=1;jettySize=auto;html=1;entryX=0.75;entryY=1;entryDx=0;entryDy=0;strokeColor=#FF0000;strokeWidth=2;fontSize=12;fontColor=#FF0000;startArrow=none;startFill=0;endArrow=classicThin;endFill=1;dashed=1;dashPattern=1 1;" parent="mPiIoSmLdyy-_Ejjq48s-2" source="9179k6H8WiGQtfXDhtcM-39" target="9179k6H8WiGQtfXDhtcM-30" edge="1">
          <mxGeometry relative="1" as="geometry" />
        </mxCell>
        <mxCell id="9179k6H8WiGQtfXDhtcM-39" value="&lt;font color=&quot;#ff0000&quot;&gt;&lt;b&gt;authenticity&lt;/b&gt;&lt;/font&gt;" style="text;html=1;strokeColor=none;fillColor=none;align=center;verticalAlign=middle;whiteSpace=wrap;rounded=0;strokeWidth=2;fontSize=12;fontColor=#000000;" parent="mPiIoSmLdyy-_Ejjq48s-2" vertex="1">
          <mxGeometry x="60" y="470" width="120" height="30" as="geometry" />
        </mxCell>
        <mxCell id="9179k6H8WiGQtfXDhtcM-40" style="edgeStyle=none;rounded=0;orthogonalLoop=1;jettySize=auto;html=1;entryX=0;entryY=0.5;entryDx=0;entryDy=0;dashed=1;dashPattern=1 1;strokeColor=#FF0000;strokeWidth=2;fontSize=12;fontColor=#FF0000;startArrow=none;startFill=0;endArrow=classicThin;endFill=1;exitX=0.5;exitY=0;exitDx=0;exitDy=0;" parent="mPiIoSmLdyy-_Ejjq48s-2" source="9179k6H8WiGQtfXDhtcM-41" target="9179k6H8WiGQtfXDhtcM-19" edge="1">
          <mxGeometry relative="1" as="geometry" />
        </mxCell>
        <mxCell id="9179k6H8WiGQtfXDhtcM-41" value="&lt;font color=&quot;#ff0000&quot;&gt;&lt;b&gt;authorization&lt;/b&gt;&lt;/font&gt;" style="text;html=1;strokeColor=none;fillColor=none;align=center;verticalAlign=middle;whiteSpace=wrap;rounded=0;strokeWidth=2;fontSize=12;fontColor=#000000;" parent="mPiIoSmLdyy-_Ejjq48s-2" vertex="1">
          <mxGeometry x="-20" y="630" width="120" height="30" as="geometry" />
        </mxCell>
        <mxCell id="9179k6H8WiGQtfXDhtcM-45" value="&lt;font color=&quot;#ff0000&quot;&gt;&lt;b&gt;non-repudiation&lt;/b&gt;&lt;/font&gt;" style="text;html=1;strokeColor=none;fillColor=none;align=center;verticalAlign=middle;whiteSpace=wrap;rounded=0;strokeWidth=2;fontSize=12;fontColor=#000000;" parent="mPiIoSmLdyy-_Ejjq48s-2" vertex="1">
          <mxGeometry x="-240" y="320" width="120" height="30" as="geometry" />
        </mxCell>
        <mxCell id="9179k6H8WiGQtfXDhtcM-44" style="edgeStyle=none;rounded=0;orthogonalLoop=1;jettySize=auto;html=1;dashed=1;dashPattern=1 1;strokeColor=#FF0000;strokeWidth=2;fontSize=12;fontColor=#FF0000;startArrow=none;startFill=0;endArrow=classicThin;endFill=1;exitX=0.5;exitY=1;exitDx=0;exitDy=0;" parent="mPiIoSmLdyy-_Ejjq48s-2" source="9179k6H8WiGQtfXDhtcM-45" edge="1">
          <mxGeometry relative="1" as="geometry">
            <mxPoint x="-320" y="380" as="targetPoint" />
          </mxGeometry>
        </mxCell>
        <mxCell id="9179k6H8WiGQtfXDhtcM-51" value="&lt;font color=&quot;#ff0000&quot;&gt;&lt;b&gt;accountability&lt;/b&gt;&lt;/font&gt;" style="text;html=1;strokeColor=none;fillColor=none;align=center;verticalAlign=middle;whiteSpace=wrap;rounded=0;strokeWidth=2;fontSize=12;fontColor=#000000;" parent="mPiIoSmLdyy-_Ejjq48s-2" vertex="1">
          <mxGeometry x="-240" y="590" width="120" height="30" as="geometry" />
        </mxCell>
        <mxCell id="9179k6H8WiGQtfXDhtcM-50" style="edgeStyle=none;rounded=0;orthogonalLoop=1;jettySize=auto;html=1;entryX=0.855;entryY=1;entryDx=0;entryDy=-4.35;entryPerimeter=0;dashed=1;dashPattern=1 1;strokeColor=#FF0000;strokeWidth=2;fontSize=12;fontColor=#FF0000;startArrow=none;startFill=0;endArrow=classicThin;endFill=1;exitX=0.5;exitY=0;exitDx=0;exitDy=0;" parent="mPiIoSmLdyy-_Ejjq48s-2" source="9179k6H8WiGQtfXDhtcM-51" target="9179k6H8WiGQtfXDhtcM-12" edge="1">
          <mxGeometry relative="1" as="geometry" />
        </mxCell>
        <mxCell id="9179k6H8WiGQtfXDhtcM-54" style="edgeStyle=none;rounded=0;orthogonalLoop=1;jettySize=auto;html=1;dashed=1;dashPattern=1 1;strokeColor=#FF0000;strokeWidth=2;fontSize=12;fontColor=#FF0000;startArrow=none;startFill=0;endArrow=classicThin;endFill=1;entryX=0.855;entryY=0;entryDx=0;entryDy=4.35;entryPerimeter=0;exitX=0.5;exitY=1;exitDx=0;exitDy=0;" parent="mPiIoSmLdyy-_Ejjq48s-2" source="9179k6H8WiGQtfXDhtcM-45" target="9179k6H8WiGQtfXDhtcM-12" edge="1">
          <mxGeometry relative="1" as="geometry">
            <mxPoint x="560" y="520" as="targetPoint" />
            <mxPoint x="490.7692307692307" y="570" as="sourcePoint" />
          </mxGeometry>
        </mxCell>
        <mxCell id="mPiIoSmLdyy-_Ejjq48s-3" value="outbound" style="locked=1;" parent="9179k6H8WiGQtfXDhtcM-0" />
        <mxCell id="9179k6H8WiGQtfXDhtcM-58" value="&lt;font color=&quot;#0000ff&quot; style=&quot;font-size: 14px;&quot;&gt;response&lt;/font&gt;" style="text;html=1;strokeColor=none;fillColor=none;align=center;verticalAlign=middle;whiteSpace=wrap;rounded=0;" parent="mPiIoSmLdyy-_Ejjq48s-3" vertex="1">
          <mxGeometry x="-380" y="310" width="60" height="30" as="geometry" />
        </mxCell>
        <mxCell id="9179k6H8WiGQtfXDhtcM-60" value="&lt;font color=&quot;#0000ff&quot; style=&quot;font-size: 14px;&quot;&gt;read (value out)&lt;/font&gt;" style="text;html=1;strokeColor=none;fillColor=none;align=center;verticalAlign=middle;whiteSpace=wrap;rounded=0;" parent="mPiIoSmLdyy-_Ejjq48s-3" vertex="1">
          <mxGeometry x="-370" y="730" width="110" height="30" as="geometry" />
        </mxCell>
        <mxCell id="9179k6H8WiGQtfXDhtcM-16" style="edgeStyle=none;rounded=0;orthogonalLoop=1;jettySize=auto;html=1;exitX=0.5;exitY=1;exitDx=0;exitDy=0;dashed=1;strokeColor=#FF00FF;strokeWidth=2;fontSize=12;fontColor=#000000;startArrow=classic;startFill=1;endArrow=none;endFill=0;entryX=0.75;entryY=0;entryDx=0;entryDy=0;" parent="mPiIoSmLdyy-_Ejjq48s-3" source="9179k6H8WiGQtfXDhtcM-17" target="9179k6H8WiGQtfXDhtcM-60" edge="1">
          <mxGeometry relative="1" as="geometry">
            <mxPoint x="-410" y="554" as="targetPoint" />
          </mxGeometry>
        </mxCell>
        <mxCell id="9179k6H8WiGQtfXDhtcM-52" style="edgeStyle=none;rounded=0;orthogonalLoop=1;jettySize=auto;html=1;exitX=0.5;exitY=1;exitDx=0;exitDy=0;dashed=1;strokeColor=#FF00FF;strokeWidth=2;fontSize=12;fontColor=#000000;startArrow=classic;startFill=1;endArrow=none;endFill=0;entryX=0.25;entryY=0;entryDx=0;entryDy=0;" parent="mPiIoSmLdyy-_Ejjq48s-3" source="9179k6H8WiGQtfXDhtcM-15" target="9179k6H8WiGQtfXDhtcM-60" edge="1">
          <mxGeometry relative="1" as="geometry">
            <mxPoint x="-460" y="554" as="targetPoint" />
            <mxPoint x="-395" y="644" as="sourcePoint" />
          </mxGeometry>
        </mxCell>
        <mxCell id="9179k6H8WiGQtfXDhtcM-22" style="edgeStyle=none;rounded=0;orthogonalLoop=1;jettySize=auto;html=1;dashed=1;strokeColor=#FF00FF;strokeWidth=2;fontSize=12;fontColor=#000000;startArrow=none;startFill=0;endArrow=classic;endFill=1;entryX=0.5;entryY=1;entryDx=0;entryDy=0;" parent="mPiIoSmLdyy-_Ejjq48s-3" target="9179k6H8WiGQtfXDhtcM-23" edge="1">
          <mxGeometry relative="1" as="geometry">
            <mxPoint x="-350" y="480" as="targetPoint" />
            <mxPoint x="-320" y="590" as="sourcePoint" />
          </mxGeometry>
        </mxCell>
        <mxCell id="9179k6H8WiGQtfXDhtcM-37" style="edgeStyle=none;rounded=0;orthogonalLoop=1;jettySize=auto;html=1;dashed=1;strokeColor=#FF00FF;strokeWidth=2;fontSize=12;fontColor=#000000;startArrow=none;startFill=0;endArrow=classic;endFill=1;entryX=0.5;entryY=1;entryDx=0;entryDy=0;" parent="mPiIoSmLdyy-_Ejjq48s-3" target="9179k6H8WiGQtfXDhtcM-58" edge="1">
          <mxGeometry relative="1" as="geometry">
            <mxPoint x="-440" y="170" as="targetPoint" />
            <mxPoint x="-350" y="380" as="sourcePoint" />
          </mxGeometry>
        </mxCell>
        <mxCell id="9179k6H8WiGQtfXDhtcM-15" value="status" style="rounded=0;whiteSpace=wrap;html=1;strokeColor=#00CC00;fontSize=12;fontColor=#000000;fillColor=none;strokeWidth=2;" parent="mPiIoSmLdyy-_Ejjq48s-3" vertex="1">
          <mxGeometry x="-380" y="600" width="60" height="40" as="geometry" />
        </mxCell>
        <mxCell id="9179k6H8WiGQtfXDhtcM-17" value="data&lt;br&gt;(optional)" style="rounded=0;whiteSpace=wrap;html=1;strokeColor=#00CC00;fontSize=12;fontColor=#000000;fillColor=none;strokeWidth=2;" parent="mPiIoSmLdyy-_Ejjq48s-3" vertex="1">
          <mxGeometry x="-320" y="600" width="70" height="40" as="geometry" />
        </mxCell>
        <mxCell id="9179k6H8WiGQtfXDhtcM-32" value="" style="endArrow=none;html=1;rounded=0;strokeColor=#00CC00;strokeWidth=2;fontSize=12;fontColor=#000000;" parent="mPiIoSmLdyy-_Ejjq48s-3" edge="1">
          <mxGeometry width="50" height="50" relative="1" as="geometry">
            <mxPoint x="-380" y="590" as="sourcePoint" />
            <mxPoint x="-250" y="590" as="targetPoint" />
          </mxGeometry>
        </mxCell>
        <mxCell id="9179k6H8WiGQtfXDhtcM-23" value="payload" style="rounded=0;whiteSpace=wrap;html=1;strokeColor=#00CC00;fontSize=12;fontColor=#000000;fillColor=none;strokeWidth=2;" parent="mPiIoSmLdyy-_Ejjq48s-3" vertex="1">
          <mxGeometry x="-350" y="390" width="60" height="40" as="geometry" />
        </mxCell>
        <mxCell id="9179k6H8WiGQtfXDhtcM-24" value="check" style="rounded=0;whiteSpace=wrap;html=1;strokeColor=#00CC00;fontSize=12;fontColor=#000000;fillColor=none;strokeWidth=2;" parent="mPiIoSmLdyy-_Ejjq48s-3" vertex="1">
          <mxGeometry x="-290" y="390" width="70" height="40" as="geometry" />
        </mxCell>
        <mxCell id="9179k6H8WiGQtfXDhtcM-25" value="source" style="rounded=0;whiteSpace=wrap;html=1;strokeColor=#00CC00;fontSize=12;fontColor=#000000;fillColor=none;strokeWidth=2;" parent="mPiIoSmLdyy-_Ejjq48s-3" vertex="1">
          <mxGeometry x="-480" y="390" width="60" height="40" as="geometry" />
        </mxCell>
        <mxCell id="9179k6H8WiGQtfXDhtcM-26" value="destination" style="rounded=0;whiteSpace=wrap;html=1;strokeColor=#00CC00;fontSize=12;fontColor=#000000;fillColor=none;strokeWidth=2;" parent="mPiIoSmLdyy-_Ejjq48s-3" vertex="1">
          <mxGeometry x="-420" y="390" width="70" height="40" as="geometry" />
        </mxCell>
        <mxCell id="9179k6H8WiGQtfXDhtcM-34" value="" style="endArrow=none;html=1;rounded=0;strokeColor=#00CC00;strokeWidth=2;fontSize=12;fontColor=#000000;" parent="mPiIoSmLdyy-_Ejjq48s-3" edge="1">
          <mxGeometry width="50" height="50" relative="1" as="geometry">
            <mxPoint x="-480" y="380" as="sourcePoint" />
            <mxPoint x="-220" y="380" as="targetPoint" />
          </mxGeometry>
        </mxCell>
        <mxCell id="8HonoLPnL0ePha8DV8kr-0" style="edgeStyle=none;rounded=0;orthogonalLoop=1;jettySize=auto;html=1;strokeColor=#FF00FF;strokeWidth=2;fontSize=12;fontColor=#000000;dashed=1;exitX=0;exitY=0.5;exitDx=0;exitDy=0;entryX=0.5;entryY=1;entryDx=0;entryDy=0;" parent="mPiIoSmLdyy-_Ejjq48s-3" source="9179k6H8WiGQtfXDhtcM-59" target="9179k6H8WiGQtfXDhtcM-15" edge="1">
          <mxGeometry relative="1" as="geometry">
            <mxPoint x="-220" y="715" as="targetPoint" />
            <mxPoint x="175" y="650" as="sourcePoint" />
          </mxGeometry>
        </mxCell>
        <mxCell id="mPiIoSmLdyy-_Ejjq48s-4" value="log" style="locked=1;" parent="9179k6H8WiGQtfXDhtcM-0" />
        <mxCell id="9179k6H8WiGQtfXDhtcM-7" style="rounded=0;orthogonalLoop=1;jettySize=auto;html=1;exitX=0.5;exitY=1;exitDx=0;exitDy=0;strokeWidth=3;strokeColor=#7F00FF;entryX=1;entryY=0;entryDx=0;entryDy=32.5;entryPerimeter=0;" parent="mPiIoSmLdyy-_Ejjq48s-4" source="9179k6H8WiGQtfXDhtcM-14" target="9179k6H8WiGQtfXDhtcM-12" edge="1">
          <mxGeometry relative="1" as="geometry">
            <mxPoint x="700" y="670" as="targetPoint" />
          </mxGeometry>
        </mxCell>
        <mxCell id="9179k6H8WiGQtfXDhtcM-10" style="rounded=0;orthogonalLoop=1;jettySize=auto;html=1;exitX=0.5;exitY=1;exitDx=0;exitDy=0;entryX=1;entryY=0;entryDx=0;entryDy=67.5;strokeWidth=3;strokeColor=#7F00FF;entryPerimeter=0;" parent="mPiIoSmLdyy-_Ejjq48s-4" source="9179k6H8WiGQtfXDhtcM-13" target="9179k6H8WiGQtfXDhtcM-12" edge="1">
          <mxGeometry relative="1" as="geometry" />
        </mxCell>
        <mxCell id="9179k6H8WiGQtfXDhtcM-12" value="&lt;font color=&quot;#000000&quot; style=&quot;font-size: 12px;&quot;&gt;Log&lt;/font&gt;" style="shape=cylinder3;whiteSpace=wrap;html=1;boundedLbl=1;backgroundOutline=1;size=15;fontSize=14;fontColor=#0000FF;" parent="mPiIoSmLdyy-_Ejjq48s-4" vertex="1">
          <mxGeometry x="-270" y="470" width="80" height="100" as="geometry" />
        </mxCell>
        <mxCell id="9179k6H8WiGQtfXDhtcM-13" value="" style="ellipse;whiteSpace=wrap;html=1;fontSize=12;fontColor=#000000;dashed=1;strokeColor=#7F00FF;fillColor=none;strokeWidth=2;rotation=90;" parent="mPiIoSmLdyy-_Ejjq48s-4" vertex="1">
          <mxGeometry x="-64" y="550" width="10" height="110" as="geometry" />
        </mxCell>
        <mxCell id="9179k6H8WiGQtfXDhtcM-14" value="" style="ellipse;whiteSpace=wrap;html=1;fontSize=12;fontColor=#000000;dashed=1;strokeColor=#7F00FF;fillColor=none;strokeWidth=2;rotation=90;" parent="mPiIoSmLdyy-_Ejjq48s-4" vertex="1">
          <mxGeometry x="-65" y="390" width="10" height="110" as="geometry" />
        </mxCell>
      </root>
    </mxGraphModel>
  </diagram>
</mxfile>
